<?xml version="1.0" encoding="utf-8"?>
<!-- Generator: Adobe Illustrator 16.0.4, SVG Export Plug-In . SVG Version: 6.00 Build 0)  -->
<!DOCTYPE svg PUBLIC "-//W3C//DTD SVG 1.1//EN" "http://www.w3.org/Graphics/SVG/1.1/DTD/svg11.dtd">
<svg version="1.1" id="Capa_1" xmlns="http://www.w3.org/2000/svg" xmlns:xlink="http://www.w3.org/1999/xlink" x="0px" y="0px"
	 width="511px" height="511px" viewBox="0 0 511 511" enable-background="new 0 0 511 511" xml:space="preserve">
<linearGradient id="SVGID_1_" gradientUnits="userSpaceOnUse" x1="430.0344" y1="111.4558" x2="114.5507" y2="476.018" gradientTransform="matrix(1 0 0 -1 -0.0552 510.8589)">
	<stop  offset="0" style="stop-color:#6C471D"/>
	<stop  offset="0.7091" style="stop-color:#DEC481"/>
	<stop  offset="1" style="stop-color:#AF9058"/>
</linearGradient>
<path fill="url(#SVGID_1_)" d="M259.185,478.973c-3.637,0-7.139-1.571-9.593-4.305L18.118,213.617
	c-0.187-0.215-0.371-0.461-0.534-0.729c-0.462-0.616-0.76-1.19-0.986-1.634c-0.308-0.491-0.688-1.212-0.955-1.95
	c-0.349-1.048-0.432-1.808-0.482-2.301c-0.143-0.667-0.205-1.427-0.185-2.208c-0.031-0.276-0.042-0.636-0.021-1.047
	c0.021-0.257,0.062-0.504,0.112-0.76c0.052-0.257,0.195-0.699,0.318-1.027c0.256-0.955,0.514-1.652,0.821-2.311
	c0.35-0.677,0.596-1.119,0.821-1.479c0.113-0.246,0.227-0.462,0.371-0.688c0.122-0.215,0.267-0.421,0.432-0.617L133.558,57.05
	c0.872-0.944,1.591-1.438,2.064-1.766c0.061-0.041,0.431-0.298,0.491-0.339c0.113-0.134,0.638-0.585,1.387-0.986
	c1.817-1.017,3.851-1.551,5.945-1.551h231.456c2.096,0,4.139,0.534,6.061,1.604c0.625,0.338,1.128,0.77,1.396,1.006
	c0.884,0.615,1.604,1.108,2.29,1.858l115.881,139.993c0.236,0.288,0.596,0.873,0.821,1.305c0.154,0.246,0.749,1.335,0.781,1.407
	c0.378,0.822,0.667,1.633,0.883,2.465c0.134,0.35,0.298,0.873,0.37,1.5c0.029,0.318,0.029,0.791,0,1.191
	c0.009,0.873-0.062,1.685-0.218,2.547c-0.08,0.626-0.185,1.17-0.358,1.726c-0.236,0.708-0.523,1.305-0.842,1.89
	c-0.021,0.041-0.258,0.462-0.276,0.504c-0.247,0.462-0.515,0.934-0.863,1.427c-0.123,0.195-0.247,0.391-0.38,0.554L268.797,474.65
	C266.313,477.402,262.821,478.973,259.185,478.973z M259.185,430.666l94.92-197.484H164.252L259.185,430.666z M213.864,395.668
	l-78.602-163.523l-75.08-9.817L213.864,395.668z M304.493,395.657l153.684-173.331l-75.07,9.817L304.493,395.657z M357.936,207.488
	l-20.806-80.369H181.219l-20.807,80.369H357.936z M384.144,206.09l81.796-10.7L376.883,87.766l-16.07,28.363L384.144,206.09z
	 M134.224,206.09l23.324-89.96l-16.072-28.363L52.419,195.39L134.224,206.09z M339.585,101.445l13.258-23.362H165.505l13.268,23.362
	H339.585z"/>
</svg>
