<?xml version="1.0" encoding="utf-8"?>
<!-- Generator: Adobe Illustrator 24.2.3, SVG Export Plug-In . SVG Version: 6.00 Build 0)  -->
<svg version="1.1" id="Capa_1" xmlns="http://www.w3.org/2000/svg" xmlns:xlink="http://www.w3.org/1999/xlink" x="0px" y="0px" width="511" height="511"
	 viewBox="0 0 511 511" style="enable-background:new 0 0 511 511;" xml:space="preserve">
<style type="text/css">
	.st0{fill:#DEC481;}
</style>
<path class="st0" d="M402.3,333l9-9c12.5-12.4,12.5-32.7,0-45.2c-11.1-11.1-28.4-12.3-40.9-3.5L268.9,173.8l75.6-75.6
	c19.5-19.5,42.2-35.3,67.4-46.8c22.1-10.1,45.3-16.6,69-19.5c-6.2,51.5-29.5,99.6-66.3,136.4l-54.8,55c-3.5,3.5-3.5,9.2,0,12.6
	c1.7,1.8,4,2.6,6.3,2.6c2.3,0,4.6-0.9,6.3-2.6l54.8-54.9c42.3-42.3,68.1-98.6,72.6-158.3c0.2-2.6-0.7-5.1-2.6-7
	c-1.8-1.8-4.4-2.8-7-2.6c-29.5,2.2-58.4,9.6-85.8,22.1c-27.1,12.4-51.5,29.4-72.6,50.4l-75.6,75.6l-75.6-75.6
	C138.3,43.2,82.1,17.5,22.4,13.1c-2.6-0.2-5.1,0.8-7,2.6c-1.8,1.8-2.8,4.4-2.6,7c4.4,59.7,30.1,115.9,72.5,158.3l75.6,75.7
	l-18.8,18.8c-12.5-8.8-29.8-7.6-40.9,3.5c-12.5,12.4-12.5,32.7,0,45.2l9,9l-83,83C8,435.2,8,466.5,27.2,485.7
	c9.2,9.2,21.6,14.3,34.8,14.3c13.1,0,25.5-5.1,34.8-14.4l83-83l9,9c6.2,6.2,14.4,9.3,22.6,9.3c8.2,0,16.4-3.1,22.6-9.4
	c11.1-11.1,12.2-28.4,3.6-40.8l18.8-18.8l18.7,18.7c-3.8,5.3-5.8,11.6-5.8,18.3c0,8.5,3.3,16.5,9.4,22.6c6.2,6.2,14.4,9.3,22.6,9.3
	c8.2,0,16.4-3.1,22.6-9.4l9-9l83,83c9.3,9.3,21.7,14.4,34.9,14.4c13.2,0,25.5-5.1,34.7-14.3c9.3-9.3,14.4-21.7,14.4-34.8
	c0-13.2-5.1-25.6-14.4-34.9L402.3,333z M31.6,32c51.5,6.1,99.6,29.4,136.3,66.2l81.8,81.8c0,0.1,0,0.1,0.1,0.2
	c0,0.1,0.1,0.1,0.1,0.1l107.3,107.3l-28.7,28.7L126.6,114.3c-3.5-3.5-9.2-3.5-12.6,0c-3.5,3.5-3.5,9.1,0,12.6L316,329l-28.7,28.7
	L179.9,250.3c0,0,0,0,0,0c0,0,0,0,0,0l-81.9-81.9C61.1,131.5,37.8,83.4,31.6,32z M221.3,399c-5.5,5.5-14.4,5.5-19.9,0l-15.3-15.3
	c-3.5-3.5-9.2-3.5-12.7,0L84.2,473c-11.9,11.9-32.6,11.8-44.3,0.1c-12.2-12.3-12.2-32.2,0-44.4l83-83l22.2,22.2
	c3.5,3.5,9.2,3.5,12.7,0c3.5-3.5,3.5-9.1,0-12.6l-43.8-43.8c-5.5-5.5-5.5-14.4,0-19.9c5.5-5.5,14.4-5.5,19.9,0l2.1,2.1
	c0.1,0.1,0.1,0.2,0.2,0.3l82.9,82.9c0.1,0.1,0.2,0.1,0.2,0.2l2.2,2.2C226.8,384.5,226.8,393.5,221.3,399z M225.3,357.7l-70.2-70.1
	l18.4-18.4l70.1,70.1L225.3,357.7z M472.7,473.1c-11.7,11.7-32.5,11.8-44.3-0.1L339,383.7c-0.5-0.5-1.2-0.8-1.8-1.2
	c-2.7-1.6-6-1.7-8.7-0.2c-0.7,0.4-1.5,0.8-2.1,1.4c0,0,0,0,0,0L311.1,399c-5.5,5.5-14.4,5.5-19.9,0c-2.7-2.7-4.1-6.2-4.1-9.9
	c0-3.8,1.5-7.3,4.1-10l2.2-2.2c0.1-0.1,0.1-0.1,0.2-0.1l82.7-82.7c0.1-0.1,0.1-0.2,0.2-0.2l2.2-2.3c5.5-5.5,14.4-5.5,19.9,0
	c5.5,5.5,5.5,14.4,0,19.9l-43.8,43.8c-3.5,3.5-3.5,9.1,0,12.6c3.5,3.5,9.2,3.5,12.7,0l22.2-22.2l83,83c5.9,5.9,9.2,13.8,9.2,22.2
	C481.9,459.3,478.6,467.1,472.7,473.1z"/>
</svg>
